# xmcd
#
# Track frame offsets: 
#        150
#        6225
#        13057
#        23187
#        32582
#        40872
#        48272
#        60925
#        65870
#        72312
#        77422
#        88467
#        95617
#        103132
#        114485
#        125567
#        137732
#        143845
#        150660
#        160790
#        170195
#        178452
#        185862
#        198510
#        203462
#        209900
#        214997
#        226012
#        233142
#        240660
#        252005
#        263085
#        286458
#
# Disc length: 4010 seconds
#
# Revision: 0
# Processed by: cddbd v1.5.2PL0 Copyright (c) Steve Scherf et al.
# Submitted via: ExactAudioCopy v1.0b3
#
DISCID=e90fa821
DTITLE=Cedarmont Kids - Cantos Biblicos (1995)
DYEAR=1995
DGENRE=Children Spanish
TTITLE0=David
TTITLE1=Este es Mi Mandamiento
TTITLE2=Cristo Me Ama
TTITLE3=Josue Peleo la Batalla de Jerico
TTITLE4=Me Ama Jesus
TTITLE5=Atrevete, y Se Como Daniel
TTITLE6=Todos Deben de Saber
TTITLE7=Santiago, Pedro y Juan en la Barca
TTITLE8=Mi Dios Es Tan Grande
TTITLE9=La Promesa en la Biblia es Mia
TTITLE10=De Tus Misericordias Cantare
TTITLE11=La B-I-B-L-I-A
TTITLE12=Oro y Plata No Tengo
TTITLE13=Yo Brillare Para El
TTITLE14=He Decidido Seguir a Cristo
TTITLE15=Cual Aceite en Lampara Brille
TTITLE16=David [SPLIT TRAX]
TTITLE17=Este es Mi Mandamiento [SPLIT TRAX]
TTITLE18=Cristo Me Ama [SPLIT TRAX]
TTITLE19=Josue Peleo la Batalla de Jerico [SPLIT TRAX]
TTITLE20=Me Ama Jesus [SPLIT TRAX]
TTITLE21=Atrevete, y Se Como Daniel [SPLIT TRAX]
TTITLE22=Todos Deben de Saber [SPLIT TRAX]
TTITLE23=Santiago, Pedro y Juan en la Barca [SPLIT TRAX]
TTITLE24=Mi Dios Es Tan Grande [SPLIT TRAX]
TTITLE25=La Promesa en la Biblia es Mia [SPLIT TRAX]
TTITLE26=De Tus Misericordias Cantare [SPLIT TRAX]
TTITLE27=La B-I-B-L-I-A [SPLIT TRAX]
TTITLE28=Oro y Plata No Tengo [SPLIT TRAX]
TTITLE29=Yo Brillare Para El [SPLIT TRAX]
TTITLE30=He Decidido Seguir a Cristo [SPLIT TRAX]
TTITLE31=Cual Aceite en Lampara Brille [SPLIT TRAX]
TTITLE32=Data
EXTD=
EXTT0=
EXTT1=
EXTT2=
EXTT3=
EXTT4=
EXTT5=
EXTT6=
EXTT7=
EXTT8=
EXTT9=
EXTT10=
EXTT11=
EXTT12=
EXTT13=
EXTT14=
EXTT15=
EXTT16=
EXTT17=
EXTT18=
EXTT19=
EXTT20=
EXTT21=
EXTT22=
EXTT23=
EXTT24=
EXTT25=
EXTT26=
EXTT27=
EXTT28=
EXTT29=
EXTT30=
EXTT31=
EXTT32=
PLAYORDER=
